<?xml version="1.0" encoding="UTF-8" standalone="no"?>
<svg
   xmlns:dc="http://purl.org/dc/elements/1.1/"
   xmlns:cc="http://creativecommons.org/ns#"
   xmlns:rdf="http://www.w3.org/1999/02/22-rdf-syntax-ns#"
   xmlns:svg="http://www.w3.org/2000/svg"
   xmlns="http://www.w3.org/2000/svg"
   xmlns:sodipodi="http://sodipodi.sourceforge.net/DTD/sodipodi-0.dtd"
   xmlns:inkscape="http://www.inkscape.org/namespaces/inkscape"
   width="600.40002"
   height="600.40002"
   id="svg2"
   version="1.1"
   inkscape:version="0.91 r13725"
   sodipodi:docname="AJAX.svg">
  <metadata
     id="metadata12">
    <rdf:RDF>
      <cc:Work
         rdf:about="">
        <dc:format>image/svg+xml</dc:format>
        <dc:type
           rdf:resource="http://purl.org/dc/dcmitype/StillImage" />
        <dc:title></dc:title>
      </cc:Work>
    </rdf:RDF>
  </metadata>
  <defs
     id="defs10" />
  <sodipodi:namedview
     pagecolor="#ffffff"
     bordercolor="#666666"
     borderopacity="1"
     objecttolerance="10"
     gridtolerance="10"
     guidetolerance="10"
     inkscape:pageopacity="0"
     inkscape:pageshadow="2"
     inkscape:window-width="1920"
     inkscape:window-height="1057"
     id="namedview8"
     showgrid="false"
     fit-margin-top="0.2"
     fit-margin-bottom="0.2"
     fit-margin-right="0.2"
     fit-margin-left="0.2"
     inkscape:zoom="0.78666667"
     inkscape:cx="455.29003"
     inkscape:cy="316.58372"
     inkscape:window-x="-8"
     inkscape:window-y="-8"
     inkscape:window-maximized="1"
     inkscape:current-layer="svg2"
     showguides="false" />
  <circle
     r="300"
     cy="300.20001"
     cx="300.20001"
     id="circle9030"
     style="fill:#002b5c;fill-opacity:1;stroke:none" />
  <circle
     style="fill:#ffffff;fill-opacity:1;stroke:none"
     id="circle9042"
     cx="300.20001"
     cy="300.20001"
     r="189.64999" />
  <path
     d="m 169.46721,296.61007 c 7.46724,-17.99385 11.04991,-23.91128 11.04991,-23.91128 -0.60383,-14.85397 3.26063,-34.33725 28.64121,-42.46869 25.40071,-8.13145 44.88397,-6.17909 58.12776,-13.70672 13.26393,-7.54776 42.20705,-29.16453 80.5295,-21.37525 41.86487,8.51388 78.21486,36.45063 85.1588,74.16927 3.86445,20.91231 1.58924,41.76423 -13.28405,60.78457 -9.60074,13.72685 -19.02034,19.20149 -27.01089,23.56912 -2.81784,1.7712 -5.81681,3.52228 -8.97681,5.23311 -0.94679,0.68433 -1.89196,1.38959 -2.75743,2.15363 -12.39846,10.92915 -9.23845,41.84474 -11.2512,50.39886 -2.03286,8.57426 -30.79483,18.11461 -32.02259,15.25654 -0.86629,-1.99261 7.84965,-9.13782 13.14315,-13.24379 0.78577,-0.98706 -0.6634,-1.99262 -3.0191,-2.29452 -11.93551,1.12713 -35.26311,3.26063 -37.37648,3.26063 -2.85808,0 0.34297,-6.29987 10.62724,-8.19184 6.2596,-1.14645 10.70774,-1.83159 15.73958,-2.61655 0.0322,-0.0161 0.0806,-0.0322 0.12881,-0.0322 0.84536,-0.16101 0.98705,-0.44281 0.74391,-0.64407 -4.54878,-0.58449 -11.47258,-1.16739 -8.21196,-3.40153 4.81045,-3.28075 25.96428,1.40892 30.23128,-6.42061 0.0806,-0.40255 0.1127,-0.82603 0.16102,-1.26884 0.74552,-7.10495 1.28814,-17.08811 -4.83057,-24.31383 -2.23413,-2.61655 -5.27337,-5.47463 -8.57424,-8.43335 -3.07949,9.31896 -4.36764,19.48326 -5.0721,24.07231 -1.3284,8.55412 -27.87637,12.68022 -28.4198,9.68124 -0.32204,-1.79133 5.15259,-5.27336 9.60073,-7.8094 0.0644,-0.11272 0.14493,-0.24153 0.28179,-0.38323 1.75108,-1.75108 0.8856,-1.93223 -1.06756,-1.95236 -10.748,1.08688 -31.53954,3.18013 -33.63277,3.18013 -2.8581,0 -1.85173,-4.54878 8.27232,-6.44075 5.05197,-0.96612 7.76916,-1.69069 10.62724,-2.47567 0,0 0,-0.0161 0,-0.0161 0.82603,-0.30112 1.06594,-0.54264 0.58289,-0.80509 -4.70979,-0.86629 -11.855,-2.37504 -11.29144,-3.42166 1.95235,-3.54242 26.12529,-1.4701 32.30438,-0.86628 2.47567,-1.04662 3.72357,-2.67694 4.62929,-6.23948 1.26884,-5.13246 -0.46373,-16.28301 -5.29349,-23.16656 -5.95769,-4.77018 -14.10927,-9.80202 -23.64962,-14.69297 -15.65908,-8.03081 -34.7398,-29.42617 -51.54613,-35.80653 -14.06902,-5.33376 -26.28631,-9.641 -38.50361,-8.95667 -8.695,0.48304 -16.26289,1.48942 -22.4621,6.66214 -14.43131,12.03615 -28.86263,35.30336 -32.7472,73.44468 0,0 -8.73526,-20.34875 10.42597,-66.50075"
     style="fill:#b82234;fill-opacity:1;fill-rule:nonzero;stroke:none"
     id="path4213"
     inkscape:connector-curvature="0" />
</svg>
