<?xml version="1.0" encoding="utf-8"?>
<!-- Generator: Adobe Illustrator 12.0.0, SVG Export Plug-In  -->
<!DOCTYPE svg PUBLIC "-//W3C//DTD SVG 1.1//EN" "http://www.w3.org/Graphics/SVG/1.1/DTD/svg11.dtd" [
	<!ENTITY ns_flows "http://ns.adobe.com/Flows/1.0/">
	<!ENTITY ns_svg "http://www.w3.org/2000/svg">
	<!ENTITY ns_xlink "http://www.w3.org/1999/xlink">
]>
<svg  version="1.1" xmlns="&ns_svg;" xmlns:xlink="&ns_xlink;" xmlns:a="http://ns.adobe.com/AdobeSVGViewerExtensions/3.0/"
	 width="900" height="900" viewBox="0 -0.004 900 900" enable-background="new 0 -0.004 900 900" xml:space="preserve">
<defs>
</defs>
<g>
	<g>
		<path d="M201.703,0C254.562,139.915,283.5,291.574,283.5,449.996c0,158.427-28.937,310.086-81.793,450h496.586
			c-52.856-139.914-81.793-291.573-81.793-450c0-158.422,28.938-310.081,81.797-449.996H201.703z"/>
	</g>
</g>
<g>
	<g>
		<path d="M450,283.496c-158.426,0-310.086-28.937-450-81.793v496.586c139.914-52.856,291.574-81.793,450-81.793
			c158.424,0,310.084,28.938,450,81.799V201.697C760.084,254.557,608.424,283.496,450,283.496z"/>
	</g>
</g>
<g>
	<g>
		<path fill="#FFFFFF" d="M211.312,0C263.785,140.021,292.5,291.652,292.5,449.996c0,158.348-28.714,309.979-81.186,450h477.371
			c-52.471-140.021-81.186-291.652-81.186-450c0-158.344,28.716-309.974,81.188-449.996H211.312z"/>
	</g>
</g>
<g>
	<g>
		<path fill="#FFFFFF" d="M450,292.496c-158.345,0-309.978-28.716-450-81.19v477.381c140.022-52.475,291.655-81.19,450-81.19
			c158.348,0,309.979,28.715,450,81.186V211.31C759.979,263.781,608.348,292.496,450,292.496z"/>
	</g>
</g>
<g>
	<g>
		<path d="M283.178,0C332.924,140.75,360,292.209,360,449.996c0,157.79-27.075,309.251-76.819,450h333.638
			C567.074,759.247,540,607.786,540,449.996C540,292.209,567.076,140.75,616.822,0H283.178z"/>
	</g>
</g>
<g>
	<g>
		<path d="M450,359.996c-157.79,0-309.251-27.075-450-76.819v333.638c140.749-49.745,292.21-76.819,450-76.819
			c157.788,0,309.249,27.076,450,76.824V283.171C759.249,332.919,607.788,359.996,450,359.996z"/>
	</g>
</g>
</svg>
