<?xml version="1.0" encoding="UTF-8" standalone="no"?>
<svg
   xmlns:dc="http://purl.org/dc/elements/1.1/"
   xmlns:cc="http://creativecommons.org/ns#"
   xmlns:rdf="http://www.w3.org/1999/02/22-rdf-syntax-ns#"
   xmlns:svg="http://www.w3.org/2000/svg"
   xmlns="http://www.w3.org/2000/svg"
   xmlns:sodipodi="http://sodipodi.sourceforge.net/DTD/sodipodi-0.dtd"
   xmlns:inkscape="http://www.inkscape.org/namespaces/inkscape"
   version="1.0"
   width="900"
   height="900"
   id="svg3055"
   inkscape:version="0.48.2 r9819"
   sodipodi:docname="Roundel_of_Malta.svg">
  <metadata
     id="metadata3123">
    <rdf:RDF>
      <cc:Work
         rdf:about="">
        <dc:format>image/svg+xml</dc:format>
        <dc:type
           rdf:resource="http://purl.org/dc/dcmitype/StillImage" />
      </cc:Work>
    </rdf:RDF>
  </metadata>
  <sodipodi:namedview
     pagecolor="#ffffff"
     bordercolor="#666666"
     borderopacity="1"
     objecttolerance="10"
     gridtolerance="10"
     guidetolerance="10"
     inkscape:pageopacity="0"
     inkscape:pageshadow="2"
     inkscape:window-width="1600"
     inkscape:window-height="838"
     id="namedview3121"
     showgrid="false"
     inkscape:zoom="0.9255242"
     inkscape:cx="466.52025"
     inkscape:cy="391.59064"
     inkscape:window-x="-8"
     inkscape:window-y="-8"
     inkscape:window-maximized="1"
     inkscape:current-layer="g4017" />
  <defs
     id="defs3057">
    <path
       d="M 0,0 L-0.3826834323650897717284599840304,-0.92387953251128675612818318939679 l0.3826834323650897717284599840304,0.3826834323650897717284599840304 L0.3826834323650897717284599840304,-0.92387953251128675612818318939679 z"
       fill="#fff"
       id="ar" />
  </defs>
  <circle
     r="450"
     cx="450"
     cy="450"
     id="circle3060"
     fill="#cf142b" />
  <circle
     r="225"
     cx="450"
     cy="450"
     id="circle3062"
     sodipodi:cx="450"
     sodipodi:cy="450"
     sodipodi:rx="225"
     sodipodi:ry="225"
     transform="matrix(1.1222411,0,0,1.1222411,-55.008488,-55.008488)"
     style="fill:#ffffff" />
  <g
     id="g3967" />
  <g
     id="g4017"
     transform="matrix(1.0853704,0,0,1.0853704,-38.408864,-38.111007)">
    <path
       d="m 437.66665,412.2321 c 0,2.40397 -2.72251,4.3528 -6.08089,4.3528 -3.35838,0 -6.08087,-1.94883 -6.08087,-4.3528 0,-2.404 2.72249,-4.35283 6.08087,-4.35283 3.35838,0 6.08089,1.94883 6.08089,4.35283 z"
       style="fill:#f1eeee;fill-opacity:1;fill-rule:evenodd;stroke:none"
       id="path2289"
       inkscape:connector-curvature="0" />
    <path
       d="m 247.40862,391.1894 0,110.46034 110.45511,0 c 0,18.40485 18.41023,36.8158 36.82045,36.8158 l 0,110.4541 110.44886,0 0,-110.4541 c 18.41023,0 36.82045,-18.41095 36.82045,-36.8158 l 110.45513,0 0,-110.46034 -110.45513,0 c 0,-18.40473 -18.41022,-36.81583 -36.82045,-36.81583 l 0,-110.45395 -110.44886,0 0,110.45395 c -18.41022,0 -36.82045,18.4111 -36.82045,36.81583 l -110.45511,0 z"
       style="font-size:12px;fill:#e60d2e;fill-opacity:1;fill-rule:evenodd;stroke-width:1pt"
       id="path2291"
       inkscape:connector-curvature="0" />
    <path
       inkscape:connector-curvature="0"
       id="path2295"
       d="m 399.46875,249 c 0,36.59375 0,73.1875 0,109.78125 -18.87435,1.66908 -35.57115,18.38802 -37.1875,37.21875 -37.27083,0 -74.54167,0 -111.8125,0 0,33.61458 0,67.22917 0,100.84375 37.27083,0 74.54167,0 111.8125,0 1.67414,18.8974 18.28648,35.49778 37.1875,37.1875 0,37.27083 0,74.54167 0,111.8125 33.625,0 67.25,0 100.875,0 0,-37.27083 0,-74.54167 0,-111.8125 18.91336,-1.69963 35.50187,-18.28461 37.1875,-37.1875 37.27083,0 74.54167,0 111.8125,0 0,-33.61458 0,-67.22917 0,-100.84375 -37.27083,0 -74.54167,0 -111.8125,0 -1.63082,-18.84104 -18.29631,-35.53398 -37.1875,-37.21875 0,-37.26042 0,-74.52083 0,-111.78125 -33.625,0 -67.25,0 -100.875,0 l 0,1 0,1 z"
       style="font-size:12px;fill:#ffffff;fill-opacity:1;fill-rule:evenodd;stroke-width:1pt" />
    <path
       inkscape:connector-curvature="0"
       id="path2297"
       d="m 407.37934,363.99464 c 0.18461,3.74046 -5.82465,1.21913 -8.53125,2.8125 -15.93198,4.08468 -29.17983,19.55567 -28.65625,36.3125 -37.08333,0 -74.16667,0 -111.25,0 0,28.35417 0,56.70833 0,85.0625 37.08333,0 74.16667,0 111.25,0 -0.57504,19.54543 17.602,37.74438 37.1875,37.1875 0,37.08333 0,74.16667 0,111.25 28.35417,0 56.70833,0 85.0625,0 0,-37.08333 0,-74.16667 0,-111.25 19.48464,0.5957 37.77264,-17.60203 37.1875,-37.1875 37.08333,0 74.16667,0 111.25,0 0,-28.35417 0,-56.70833 0,-85.0625 -37.08333,0 -74.16667,0 -111.25,0 0.56428,-19.55537 -17.63598,-37.75784 -37.1875,-37.1875 0,-37.08333 0,-74.16667 0,-111.25 -28.35417,0 -56.70833,0 -85.0625,0 0,36.4375 0,72.875 0,109.3125 z"
       style="font-size:12px;fill:#ffffff;fill-opacity:1;fill-rule:evenodd;stroke:#989898;stroke-width:2.25999999;stroke-miterlimit:4;stroke-opacity:1;stroke-dasharray:none" />
    <g
       id="g3972">
      <path
         d="m 398.83035,364.1019 c 6.4702,6.47037 4.72179,18.70935 -3.90517,27.33652 -8.62697,8.62718 -20.86565,10.37563 -27.33585,3.90523 -6.47021,-6.47038 -4.7218,-18.70938 3.90516,-27.33655 8.62697,-8.62715 20.86565,-10.3756 27.33586,-3.9052 z"
         style="fill:#ffffff;fill-opacity:1;fill-rule:evenodd;stroke:#000000;stroke-opacity:1"
         id="path3073"
         inkscape:connector-curvature="0" />
      <path
         d="m 366.28711,383.62665 2.60309,-2.60318 10.4141,5.20698 -5.20739,-10.4138 2.60363,-2.6038 10.41369,20.82777 -20.82712,-10.41397 z"
         style="fill:#000000;fill-opacity:1;fill-rule:evenodd;stroke:none"
         id="path3075"
         inkscape:connector-curvature="0" />
      <rect
         width="3.6818185"
         height="22.090914"
         x="9.837534"
         y="530.26886"
         transform="matrix(0.70709678,-0.70711678,0.70709678,0.70711678,0,0)"
         style="font-size:12px;fill:#000000;fill-opacity:1;fill-rule:evenodd;stroke:none"
         id="rect3077" />
    </g>
    <path
       d="m 527.22549,446.42134 c 0.01,42.70912 -34.60917,77.33687 -77.31722,77.33687 -42.70807,0 -77.32704,-34.62775 -77.31726,-77.33687 -0.01,-42.70909 34.60919,-77.33684 77.31723,-77.33684 42.70808,0 77.32705,34.62775 77.31725,77.33684 l 0,0 z"
       style="fill:none;stroke:#000000;stroke-width:1.24999833;stroke-linecap:butt;stroke-linejoin:miter;stroke-opacity:1"
       id="path2331"
       inkscape:connector-curvature="0" />
    <path
       d="m 508.81562,446.42212 c 0.007,32.54032 -26.36878,58.92342 -58.9081,58.92342 -32.53933,0 -58.91556,-26.3831 -58.90811,-58.92342 -0.007,-32.5403 26.36878,-58.9234 58.90811,-58.9234 32.53932,0 58.91555,26.3831 58.9081,58.9234 l 0,0 z"
       style="fill:none;stroke:#000000;stroke-width:1.24999833;stroke-linecap:butt;stroke-linejoin:miter;stroke-opacity:1"
       id="path2333"
       inkscape:connector-curvature="0" />
    <path
       d="m 424.13506,509.01306 c 0.002,1.31671 -0.69932,2.53426 -1.83927,3.19318 -1.13995,0.65895 -2.54501,0.65895 -3.68495,0 -1.13995,-0.65892 -1.84125,-1.87647 -1.83928,-3.19318 -0.002,-1.31672 0.69933,-2.53427 1.83928,-3.19319 1.13994,-0.65893 2.545,-0.65893 3.68495,0 1.13995,0.65892 1.84124,1.87647 1.83927,3.19319 l 0,0 z"
       style="fill:#000000;fill-opacity:1;fill-rule:evenodd;stroke:none"
       id="path2335"
       inkscape:connector-curvature="0" />
    <path
       d="m 483.04327,509.01306 c 0.002,1.31671 -0.69932,2.53426 -1.83927,3.19318 -1.13993,0.65895 -2.545,0.65895 -3.68495,0 -1.13993,-0.65892 -1.84123,-1.87647 -1.83928,-3.19318 -0.002,-1.31672 0.69935,-2.53427 1.83928,-3.19319 1.13995,-0.65893 2.54502,-0.65893 3.68495,0 1.13995,0.65892 1.84125,1.87647 1.83927,3.19319 l 0,0 z"
       style="fill:#000000;fill-opacity:1;fill-rule:evenodd;stroke:none"
       id="path2337"
       inkscape:connector-curvature="0" />
    <path
       d="m 447.45367,509.01349 0,3.8392 -4.90927,0 c -4.90931,0 -4.90931,3.83905 0,3.83905 l 4.90927,0 0,3.83875 c 0.0175,3.97993 4.28448,4.45933 4.59687,0.31035 l 0.31173,-4.1491 4.9093,0 c 4.90857,0 4.90857,-3.83905 0,-3.83905 l -4.9093,0 0,-3.8392 c 0,-3.83857 -4.9086,-3.83857 -4.9086,0 z"
       style="fill:#000000;fill-opacity:1;fill-rule:evenodd;stroke:none"
       id="path2339"
       inkscape:connector-curvature="0" />
    <g
       style="fill:#fffffe;fill-opacity:1"
       transform="matrix(0.493065,0,0,0.493065,803.88987,72.769516)"
       id="g4982">
      <path
         d="m -632.68559,780.63036 c 2.62008,-0.66291 6.9448,-0.12627 6.9448,-0.12627 0,0 0.37881,1.79934 -0.75761,2.39912 1.26269,0.72605 5.80838,0.50507 5.80838,0.50507 0,0 -1.76777,1.3574 -2.65165,1.89404 1.6415,0.15784 3.6618,2.27284 3.6618,2.27284 0,0 -3.78807,0.63134 -5.42957,-0.25254 1.01015,2.0203 0.88388,3.78807 0.88388,3.78807 0,0 -6.12405,-1.51522 -8.33376,-5.55583"
         style="fill:#fffffe;fill-opacity:1;fill-rule:evenodd;stroke:#000000;stroke-width:1px;stroke-linecap:butt;stroke-linejoin:miter;stroke-opacity:1"
         id="path4942"
         inkscape:connector-curvature="0" />
      <path
         d="m -642.91338,777.22109 c -1.48366,3.66181 -12.37437,-3.15672 -12.37437,-3.15672 0,0 4.79823,7.60771 11.99557,8.46003"
         style="fill:#fffffe;fill-opacity:1;fill-rule:evenodd;stroke:#000000;stroke-width:1px;stroke-linecap:butt;stroke-linejoin:miter;stroke-opacity:1"
         id="path4944"
         inkscape:connector-curvature="0" />
      <path
         d="m -778.90517,847.04789 127.53176,0 9.84899,-7.82868 -16.41498,-8.83883 -25.25381,-8.5863 -10.10153,-5.55584 -18.68782,1.01015 -15.65736,8.33376 -21.46575,2.52538 -5.05076,5.80838 -15.90991,1.26269 -25.00127,-0.50508 41.66879,6.566 -34.34518,-1.76777 8.83883,7.57614 z"
         style="fill:#fffffe;fill-opacity:1;fill-rule:evenodd;stroke:#000000;stroke-width:1px;stroke-linecap:butt;stroke-linejoin:miter;stroke-opacity:1"
         id="path4946"
         inkscape:connector-curvature="0" />
      <path
         d="m -710.21479,810.42986 c -15.97304,-8.5863 -20.64499,12.56377 -27.52666,17.67767 9.28078,1.57836 16.28871,-7.1342 24.24366,-11.36421 6.03248,16.42609 15.5311,5.55584 15.5311,5.55584 0,0 9.91212,15.72049 23.10724,8.58629 3.59867,2.71478 7.57614,0.25254 7.57614,0.25254 0,0 4.79823,0.88388 5.80838,-1.26269 2.52538,0.88388 5.3033,-2.27284 5.3033,-2.27284 0,0 5.4927,0.0631 6.56599,-2.77792 8.14435,1.45209 18.94036,-16.66752 18.94036,-16.66752 l 3.283,-6.31345 4.79822,-1.01016 c 0,0 0.31568,-3.15672 -2.27284,-3.03045 -0.0631,-1.89404 -1.70463,-2.9042 -4.04061,-2.52539 0.44194,-1.13642 -1.26269,-2.0203 -1.26269,-2.0203 -4.54569,1.13642 -4.79823,12.62691 -4.79823,12.62691 0,0 -7.95495,6.06091 -10.85914,7.57614 -0.12627,-6.56599 -11.11167,-15.46796 -8.83883,-19.69797 2.27284,-4.23001 9.40704,6.50286 15.65736,4.54569 6.25031,-1.95718 9.32133,-10.08735 9.59645,-16.41499 -1.76777,-4.29315 -6.06091,-11.36421 -6.06091,-11.36421 l -4.04062,-0.25254 -3.53553,-8.5863 c 0,0 -7.44988,4.86137 -7.32361,9.09138 0.12627,4.23002 7.82869,7.82868 7.82869,7.82868 0,0 -4.44153,2.77591 -8.5863,1.51523 -0.37881,4.29315 5.05076,3.4724 7.07107,3.53553 1.01015,3.09359 4.04061,4.79823 4.04061,4.79823 0,0 1.89403,4.73508 -3.03046,4.29314 -4.92449,-0.44194 -10.73435,-11.78831 -17.67767,-6.56599 -7.38674,5.55585 3.283,15.65737 3.283,15.65737 0,0 -6.50286,3.40927 -10.35407,12.12183 -15.7205,-13.25825 -24.93813,-7.07107 -42.4264,-3.53554 z"
         style="fill:#fffffe;fill-opacity:1;fill-rule:evenodd;stroke:#000000;stroke-width:1px;stroke-linecap:butt;stroke-linejoin:miter;stroke-opacity:1"
         id="path4948"
         inkscape:connector-curvature="0" />
      <path
         d="m -733.19577,787.95397 c 6.56599,6.18718 1.98693,16.47158 4.54569,18.43528 2.71478,2.08344 6.56599,-1.01015 6.56599,-1.01015 6.88167,1.8309 19.1929,-2.02031 19.1929,-2.02031 5.41805,3.02964 3.27938,-1.4411 6.56599,-1.26269 2.90419,7.44987 12.62691,6.06092 12.62691,6.06092 0,0 -8.90197,-9.09137 -14.39467,-11.61675 -4.23001,2.52538 -16.54125,2.90419 -18.68782,2.52538 -2.39188,-0.4221 -0.88389,-3.34614 -2.02031,-5.05077 4.52664,-4.40623 0.94702,-15.34169 -1.51523,-19.44543 -10.03428,-6.68442 -22.02186,4.76955 -12.87945,13.38452 z"
         style="fill:#fffffe;fill-opacity:1;fill-rule:evenodd;stroke:#000000;stroke-width:1px;stroke-linecap:butt;stroke-linejoin:miter;stroke-opacity:1"
         id="path4950"
         inkscape:connector-curvature="0" />
      <path
         d="m -776.84844,769.43987 c -8.25893,2.23214 -22.58929,-10.66964 -29.28572,-5.71428 -6.69642,4.95536 -3.57143,17.14285 0.89286,23.21428 4.36159,5.93176 -6.38393,8.08036 -9.28571,11.60715 -2.72801,3.31558 0.89285,7.14286 0.89285,7.14286 l 3.03572,1.96427 -0.53572,4.46429 1.60715,5.35715 c 0,0 1.47321,1.29464 1.96428,-0.35715 1.38393,1.38393 0.14619,5.38579 3.57143,5.89286 -1.22652,-2.56288 0.89286,-9.64286 0.89286,-9.64286 0,0 5.98214,0.44643 7.5,-2.14285 1.51786,-2.58929 -1.42857,-8.21429 -1.42857,-8.21429 0,0 1.78571,0 1.78571,0 -2.00893,-1.38393 -2.67857,-5.53571 -2.67857,-5.53571 0,0 8.30357,-2.63393 8.21429,-8.92857 -0.0893,-6.29464 -13.48215,-12.99107 -8.57143,-16.25 5.44642,-3.61608 14.91071,9.37499 23.03571,3.39285 8.04058,-5.91998 2.85714,-0.17857 2.85714,-0.17857 0,0 3.67504,-8.27125 -4.46428,-6.07143 z"
         style="fill:#fffffe;fill-opacity:1;fill-rule:evenodd;stroke:#000000;stroke-width:1px;stroke-linecap:butt;stroke-linejoin:miter;stroke-opacity:1"
         id="path4952"
         inkscape:connector-curvature="0" />
      <path
         d="m -734.20592,681.00407 c -11.04855,-4.60882 -33.61914,-4.89293 -46.21448,-11.11168 -5.52427,0.34724 -7.98652,4.70352 -8.20749,6.43972 -5.77681,-0.2841 -9.69115,8.80727 -8.83883,10.60661 -10.5119,-4.26159 -15.40483,12.37436 -11.99556,15.78363 -8.96511,0.37881 -7.86025,11.83772 -8.71257,15.02602 -2.87262,6.97637 0.63971,9.32379 6.31345,6.81853 0.85232,3.03046 -0.3406,4.72797 -2.90419,5.3033 15.56142,17.80747 24.35632,-10.95894 38.00699,-10.85914 17.04354,-4.98949 23.73859,-13.38452 23.73859,-13.38452 l 6.69226,0.88388 c 0,0 12.12183,-25.50635 12.12183,-25.50635 z"
         style="fill:#fffffe;fill-opacity:1;fill-rule:evenodd;stroke:#000000;stroke-width:1px;stroke-linecap:butt;stroke-linejoin:miter;stroke-opacity:1"
         id="path4954"
         inkscape:connector-curvature="0" />
      <path
         d="m 136.7494,57.993271 c 0,8.996006 -7.2927,16.28871 -16.28871,16.28871 -8.99601,0 -16.28871,-7.292704 -16.28871,-16.28871 0,-8.996006 7.2927,-16.28871 16.28871,-16.28871 8.99601,0 16.28871,7.292704 16.28871,16.28871 l 0,0 z"
         transform="translate(-840.3982,610.2576)"
         style="fill:#fffffe;fill-opacity:1;fill-rule:nonzero;stroke:#000000;stroke-width:1;stroke-linecap:round;stroke-miterlimit:4;stroke-opacity:1;stroke-dasharray:none;stroke-dashoffset:0"
         id="path4956"
         inkscape:connector-curvature="0" />
      <path
         d="m -748.60059,796.54027 c -10.10153,-1.8309 -26.83218,-12.31124 -28.53681,-26.01143 9.40704,-36.9337 57.93244,-17.64703 62.11913,-45.42623 -1.06645,-18.32718 2.2153,-36.46951 12.37962,-51.80095 4.73509,-5.99778 10.85914,-7.57615 10.85914,-7.57615 0,0 1.09689,3.91174 -0.50508,6.56599 8.01809,-0.88388 19.0035,3.59867 26.51651,4.04061 2.20971,4.48256 2.02031,6.12405 1.51523,8.83884 -0.50508,2.71478 -3.53554,2.0203 -3.53554,2.0203 -1.95985,1.85911 -4.31549,3.75073 -9.59645,2.77792 -3.97747,3.03046 -12.37436,3.78808 -12.37436,3.78808 0,0 17.5514,18.49841 14.64721,24.24365 3.6618,1.70463 9.09137,9.84899 9.09137,9.84899 0,0 11.99556,-6.31345 15.9099,-12.12183 6.9448,0 18.30902,7.26047 23.99113,8.08122 6.9448,5.61897 13.88959,11.36422 13.88959,11.36422 0,0 -8.27062,5.42957 -11.86929,-1.76777 -4.35628,0.37881 -13.76333,-10.03839 -26.76904,-6.81853 -0.37881,11.55362 -13.13198,19.69798 -13.13198,19.69798 0,0 11.90346,-1.66586 18.43528,2.27284 6.7554,5.68211 16.66752,13.38452 16.66752,13.38452 l 8.83883,15.15229 c 0,0 -8.08122,1.38896 -11.11168,-9.09137 -3.03046,8.46003 -3.15671,-5.24017 -15.15228,-11.61676 -3.6618,0.44194 -5.49271,0.69448 -8.5863,-1.76777 -8.64943,2.33598 -18.87722,7.38674 -31.06219,6.06092 -8.64943,2.71479 -14.96289,9.91213 -23.73859,13.8896 -8.7757,3.97748 -11.36421,2.0203 -11.36421,2.0203 l -7.07107,0.25254 c -1.02013,4.25692 -0.44194,10.73287 -4.29315,11.86929 2.46225,2.65165 -1.76776,13.95274 -6.06091,15.90991 2.0203,7.26047 7.93882,9.48297 14.14213,13.13198 0,0 5.4927,-2.52538 9.09137,0.75761 3.59867,3.283 7.32361,12.62691 7.32361,12.62691 0,0 -7.48976,0.50602 -9.84899,-0.50508 -2.35923,-1.0111 -2.58851,-3.47239 -5.3033,-2.77791 -17.10946,-15.21542 -26.1323,-9.16339 -27.7792,-12.62691 -1.68806,-3.55011 4.04061,-12.81631 2.27285,-18.68782 z"
         style="fill:#fffffe;fill-opacity:1;fill-rule:evenodd;stroke:#000000;stroke-width:1px;stroke-linecap:butt;stroke-linejoin:miter;stroke-opacity:1"
         id="path4958"
         inkscape:connector-curvature="0" />
      <path
         d="m -789.70558,728.72559 c 0.89285,-1.11607 7.14285,1.25 7.14285,1.25 l 11.42857,7.14285 23.21429,15 8.21429,11.96429 -14.82143,-4.82143 -20.53572,-17.67857 -11.07143,-7.14286 c 0,0 -4.46428,-4.59821 -3.57142,-5.71428 z"
         style="fill:#fffffe;fill-opacity:1;fill-rule:evenodd;stroke:#000000;stroke-width:1px;stroke-linecap:butt;stroke-linejoin:miter;stroke-opacity:1"
         id="path4960"
         inkscape:connector-curvature="0" />
      <path
         d="m -652.38356,766.74077 c -8.01809,-2.0203 -27.7792,21.97081 -27.7792,21.97081 l 14.89975,16.16244 c 0,0 0.44195,-27.52665 12.87945,-38.13325 z"
         style="fill:#fffffe;fill-opacity:1;fill-rule:evenodd;stroke:#000000;stroke-width:1px;stroke-linecap:butt;stroke-linejoin:miter;stroke-opacity:1"
         id="path4962"
         inkscape:connector-curvature="0" />
      <path
         d="m -750.11582,699.81816 c -4.37257,5.60259 -4.76382,16.89775 0.92439,21.45345 0.53624,6.85574 6.36514,20.68471 10.9449,21.98311 5.00364,1.41858 25.00128,6.06091 32.82996,4.79822 -1.49729,12.68818 8.45915,22.87265 17.67767,29.54696 -0.0672,1.1386 -0.083,2.52854 0.98214,3.93601 1.03177,1.36336 5.87585,1.61322 6.08893,0.86222 2.14832,3.01908 12.55403,4.34468 13.30792,2.99982 0.73354,-1.30855 -15.30547,-12.47231 -18.86376,-15.87927 -3.02257,-5.6391 -8.74738,-18.20441 -10.10153,-28.28427 -7.87201,-9.36557 -21.38652,-9.17803 -21.38652,-9.17803 l 0.42586,-18.34862 0.75761,-20.70813 -7.3236,-3.78807 c 0,0 1.47638,-0.67282 2.27284,-1.51523 1.7786,0.76473 5.12101,-2.80856 5.55584,-3.81871 1.68483,0.59699 3.21022,0.58903 3.5049,-0.31119 0.26024,-0.79502 0.56175,-4.33407 1.17603,-6.16289 5.52499,-4.86453 -0.80652,-15.17921 -9.25463,-15.3488 -8.35882,-0.1696 -10.2337,9.97099 -10.07351,10.74184 0.78519,3.18156 0.61603,4.78553 0,5.55584 -0.62965,0.78734 -3.53554,2.52538 -3.53554,2.52538 0,0 -4.67195,-2.20971 -10.35406,0 -5.68211,2.20971 -12.0587,5.17703 -12.37437,8.83884 -2.58852,0.3788 -6.81853,3.72493 -7.57615,6.56599 -2.27284,-0.44194 -5.24016,1.45209 -10.10152,9.34391 -8.71257,3.8512 -9.21764,22.47589 -9.21764,22.47589 0,0 -2.35176,3.42504 -2.46225,5.24016 -0.11049,1.81512 0.82075,3.47241 1.95717,3.15674 0.12627,1.19955 1.70463,2.27283 2.39911,1.89403 0.25254,1.19955 1.98601,1.87041 3.03046,1.70464 0.0947,0.82075 3.45662,0.61556 3.72494,-0.12627 0.2961,-0.81864 -0.33267,-4.9132 0.0631,-5.24017 0.36303,-0.29989 3.15673,1.8309 3.91434,1.26268 0.75762,-0.56821 -0.14469,-2.38772 -0.56821,-3.09359 -0.3788,-0.63134 -2.77792,-1.32582 -3.34613,-4.29314 -0.56821,-2.96732 1.51523,-7.07107 1.51523,-7.07107 0,0 9.47018,-7.44987 10.54347,-13.82646 7.1342,0.69448 10.90649,-5.54006 12.94258,-7.89182 z"
         style="fill:#fffffe;fill-opacity:1;fill-rule:evenodd;stroke:#000000;stroke-width:1px;stroke-linecap:butt;stroke-linejoin:miter;stroke-opacity:1"
         id="path4964"
         inkscape:connector-curvature="0" />
      <path
         d="m -766.59394,673.11225 c 2.16236,-5.28751 9.97526,-4.79822 9.97526,-4.79822 0,0 2.79371,-7.35518 13.32139,-2.96733 3.96169,-3.06202 14.39467,1.32583 14.39467,1.32583 0,0 3.90674,-5.20534 9.02825,-4.60882 9.48596,1.10485 11.06432,9.80164 10.48033,11.30108 -5.19281,1.31004 -14.1888,-4.22011 -21.0238,-2.65165 -3.99326,2.25706 -10.46456,4.64039 -12.87945,7.89182 -6.32924,0.66291 -13.08463,-5.82416 -23.29665,-5.49271 z"
         style="fill:#fffffe;fill-opacity:1;fill-rule:evenodd;stroke:#000000;stroke-width:1px;stroke-linecap:butt;stroke-linejoin:miter;stroke-opacity:1"
         id="path4966"
         inkscape:connector-curvature="0" />
      <path
         d="m -746.83283,681.88795 c 2.36755,-1.45209 8.17534,-4.00486 12.12184,-0.88388 4.13531,4.45098 10.48033,8.5863 10.48033,8.5863 l 7.19734,3.03045 3.28299,2.02031 -2.14657,32.95623 c -6.66193,-6.81656 -12.90536,-8.00984 -17.67766,-16.03618 -2.55695,-3.44083 -0.59978,-11.71145 -5.05077,-17.17259 -4.45099,-5.46114 -9.18608,-9.15451 -8.2075,-12.50064 z"
         style="fill:#fffffe;fill-opacity:1;fill-rule:evenodd;stroke:#000000;stroke-width:1px;stroke-linecap:butt;stroke-linejoin:miter;stroke-opacity:1"
         id="path4968"
         inkscape:connector-curvature="0" />
      <path
         d="m -729.52701,691.40416 c 0,0 3.77232,-0.71429 4.82143,0.17857 1.31696,0.44643 2.58929,0.82589 2.94643,1.96429 1.42857,0.4241 2.41071,1.16071 2.41071,2.23214 1.33928,0.35714 1.875,2.76786 1.875,2.76786 l -1.25,1.875 c 0,0 -1.42857,-1.33929 -1.60714,-2.76786 -0.90385,-0.4451 -2.90179,-0.91518 -3.39286,-2.23214 -1.5625,-0.15625 -2.56696,-0.95982 -2.85714,-2.32143 -1.45089,0.33482 -2.94643,-1.69643 -2.94643,-1.69643 z"
         style="fill:#fffffe;fill-opacity:1;fill-rule:evenodd;stroke:#000000;stroke-width:1px;stroke-linecap:butt;stroke-linejoin:miter;stroke-opacity:1"
         id="path4970"
         inkscape:connector-curvature="0" />
      <path
         d="m -697.58789,669.89239 c -2.14657,-2.39911 -5.93464,-0.63134 -5.93464,-0.63134 l -10.10153,17.42513 -4.41942,3.6618 -0.3788,13.63706 3.6618,12.75317 -1.26269,9.84899 c 0,0 5.08713,-4.77247 5.68211,-7.44988 0.56821,-2.55695 -1.89404,-10.85913 -1.89404,-10.85913 0,0 -3.03045,-5.17703 0.63135,-14.77348 3.6618,-9.59645 11.99556,-17.5514 14.01586,-23.61232 z"
         style="fill:#fffffe;fill-opacity:1;fill-rule:evenodd;stroke:#000000;stroke-width:1px;stroke-linecap:butt;stroke-linejoin:miter;stroke-opacity:1"
         id="path4972"
         inkscape:connector-curvature="0" />
      <path
         d="m -672.66124,685.42349 c 0,0 -15.77214,22.53903 -41.59416,30.55711 -7.1342,1.70463 -4.54569,-16.66751 -4.54569,-16.66751 l -1.76777,0.50507 c 0,0 -3.97747,17.99334 5.55584,18.18274 25.9483,-5.1139 45.41782,-32.43162 45.41782,-32.43162 l -3.06604,-0.14579 z"
         style="fill:#fffffe;fill-opacity:1;fill-rule:evenodd;stroke:#000000;stroke-width:1px;stroke-linecap:butt;stroke-linejoin:miter;stroke-opacity:1"
         id="path4974"
         inkscape:connector-curvature="0" />
      <path
         d="m -661.98001,814.97555 c 0,0 -2.39911,1.76777 -5.55584,0 -1.6415,-3.78807 -6.06091,-4.04061 -6.06091,-4.04061 0,0 -2.8465,-8.17752 -7.32361,-5.80838 -0.69448,-4.23001 -5.55584,-2.0203 -5.55584,-2.0203 0,0 -0.12627,-6.12405 -5.80838,-5.3033 1.89404,-7.00794 -7.82868,-6.566 -7.82868,-6.566 0,0 -0.31567,-7.89182 -14.64721,-6.31345 30.87279,-13.82646 55.30585,21.71828 55.30585,21.71828"
         style="fill:#fffffe;fill-opacity:1;fill-rule:evenodd;stroke:#000000;stroke-width:1px;stroke-linecap:butt;stroke-linejoin:miter;stroke-opacity:1"
         id="path4976"
         inkscape:connector-curvature="0" />
      <path
         d="m -647.3328,818.00601 c 0,0 7.1342,8.01809 10.85914,8.08122 3.72494,0.0631 4.04061,-7.82869 4.04061,-7.82869 0,0 1.19956,3.40927 3.03046,2.52539 -0.1894,2.39911 2.27284,3.03045 2.27284,3.03045 0,0 -6.43972,14.96289 -24.74873,0.75762"
         style="fill:#fffffe;fill-opacity:1;fill-rule:evenodd;stroke:#000000;stroke-width:1px;stroke-linecap:butt;stroke-linejoin:miter;stroke-opacity:1"
         id="path4978"
         inkscape:connector-curvature="0" />
      <path
         d="m -703.14373,821.03646 -2.52538,10.35407 c 0,0 -3.21986,2.90418 -2.27284,3.53553 0.94702,0.63134 6.06092,-1.01015 6.06092,-1.01015 0,0 7.95495,-0.94702 10.35406,-3.283 1.6415,3.72494 5.3033,4.04061 5.3033,4.04061 0,0 0.25254,-1.57836 -0.25254,-2.52538 1.76777,0.31567 3.283,-0.25254 3.283,-0.25254 0,0 1.01016,-2.90419 -1.26269,-4.04061 0.25254,-2.14657 1.32582,-4.04061 -2.52539,-3.78807 -2.84105,3.03046 -9.84898,6.50286 -11.61675,5.30331 -1.76776,-1.19956 6.9448,-5.05077 4.54569,-10.10153"
         style="fill:#fffffe;fill-opacity:1;fill-rule:evenodd;stroke:#000000;stroke-width:1px;stroke-linecap:butt;stroke-linejoin:miter;stroke-opacity:1"
         id="path4980"
         inkscape:connector-curvature="0" />
    </g>
    <g
       transform="matrix(4.270235,-2.6009725,2.6009725,4.270235,90.06402,358.05677)"
       id="g3718">
      <path
         d="m 67.27785,53.541611 -1.036871,-0.0928 -0.043,0.480501 c -0.0099,0.110235 0.0072,0.193143 0.05127,0.248725 0.04405,0.05558 0.137296,0.09824 0.279744,0.127986 l -0.0064,0.07198 -0.892915,-0.07992 0.0064,-0.07198 c 0.10257,0.0079 0.17898,0.0013 0.22923,-0.01968 0.05025,-0.021 0.08937,-0.05279 0.117368,-0.09539 0.028,-0.0426 0.04594,-0.10799 0.05384,-0.196177 l 0.043,-0.480501 -0.828719,-0.07417 c -0.133581,-0.01196 -0.222524,-0.01142 -0.266831,0.0016 -0.03358,0.01007 -0.0639,0.03481 -0.09096,0.07422 -0.03623,0.05428 -0.05713,0.112541 -0.06271,0.174793 l -0.0085,0.09532 -0.07198,-0.0064 0.101332,-1.132193 0.07198,0.0064 -0.0084,0.09338 c -0.0097,0.108939 0.01494,0.190894 0.07408,0.245864 0.03871,0.03484 0.137184,0.05934 0.295406,0.0735 l 1.704125,0.152521 c 0.133579,0.01196 0.222522,0.01142 0.266831,-0.0016 0.03358,-0.01007 0.06384,-0.03416 0.09079,-0.07227 0.03611,-0.05298 0.05702,-0.111246 0.06271,-0.174793 l 0.0084,-0.09338 0.07198,0.0064 -0.175678,1.962857 -0.581978,-0.0266 0.0061,-0.06809 c 0.126222,-0.02269 0.220192,-0.05383 0.28191,-0.0934 0.06171,-0.03958 0.108473,-0.09096 0.140275,-0.154125 0.0318,-0.06317 0.05385,-0.163495 0.06615,-0.300965 l 0.05206,-0.581659 z m -0.833044,4.539882 c -0.127364,0.319283 -0.358964,0.547572 -0.694801,0.684868 -0.335839,0.137291 -0.685169,0.133573 -1.047993,-0.01115 -0.373708,-0.149074 -0.636885,-0.390736 -0.789531,-0.724985 -0.152646,-0.334253 -0.162152,-0.668883 -0.02852,-1.003888 0.135082,-0.338637 0.36891,-0.575149 0.701487,-0.709538 0.332576,-0.134389 0.689951,-0.125359 1.072126,0.02709 0.390639,0.155825 0.656252,0.415981 0.796839,0.780469 0.121919,0.316386 0.118716,0.635432 -0.0096,0.957138 l 0,0 z m -0.118682,-0.08729 c 0.0878,-0.220116 0.0766,-0.429254 -0.0336,-0.627416 -0.137089,-0.24674 -0.401558,-0.448262 -0.793407,-0.604569 -0.401525,-0.160169 -0.744783,-0.197562 -1.029773,-0.11218 -0.217065,0.06621 -0.368775,0.207564 -0.455131,0.42405 -0.09214,0.230997 -0.07815,0.457723 0.04199,0.680179 0.12014,0.222452 0.37432,0.411109 0.762542,0.565973 0.420875,0.167883 0.767764,0.21023 1.040668,0.127039 0.217546,-0.06743 0.373115,-0.218453 0.466709,-0.453076 l 0,0 z m -5.174079,3.36698 0.448429,-0.54663 1.525946,0.09227 c 0.0401,-0.053 0.07337,-0.0956 0.0998,-0.12781 0.01074,-0.01309 0.02255,-0.02698 0.03544,-0.04166 0.01289,-0.01469 0.02645,-0.02967 0.04067,-0.04495 l -0.594951,-0.48807 c -0.128855,-0.105708 -0.220448,-0.157268 -0.274779,-0.154681 -0.07568,0.0019 -0.144895,0.04113 -0.207659,0.117638 l -0.06565,0.08003 -0.05587,-0.04583 0.719716,-0.877326 0.05587,0.04583 -0.06318,0.07701 c -0.07102,0.08657 -0.09362,0.171609 -0.06781,0.255103 0.01387,0.04674 0.07919,0.11801 0.195961,0.213808 l 1.322784,1.085149 c 0.128854,0.105706 0.220447,0.157266 0.274779,0.154682 0.0765,-0.0029 0.146546,-0.04315 0.210137,-0.120658 l 0.06318,-0.07701 0.05587,0.04583 -0.611946,0.745954 c -0.178382,0.217441 -0.325751,0.364749 -0.442109,0.441923 -0.11636,0.07717 -0.246595,0.116851 -0.390707,0.119049 -0.144112,0.0022 -0.275059,-0.04502 -0.392841,-0.141642 -0.125836,-0.103233 -0.201408,-0.233858 -0.226717,-0.391877 -0.02531,-0.158025 0.01352,-0.338798 0.116482,-0.54232 l -0.934252,-0.05907 c -0.214175,-0.01402 -0.371902,-0.0045 -0.47318,0.02866 -0.101275,0.03312 -0.203788,0.1006 -0.307537,0.202434 l -0.05587,-0.04583 z m 2.24541,-0.590744 c -0.01569,0.01913 -0.02957,0.03553 -0.04163,0.04921 -0.01207,0.01368 -0.02181,0.02505 -0.02925,0.03411 -0.160213,0.195295 -0.238711,0.377208 -0.235494,0.545738 0.0032,0.168527 0.07026,0.306471 0.201128,0.413832 0.127849,0.104878 0.264616,0.15013 0.410302,0.135756 0.145685,-0.01438 0.27262,-0.08751 0.380805,-0.21938 0.0479,-0.05839 0.103162,-0.14526 0.165794,-0.260611 l -0.851655,-0.698658 z m -8.130948,6.528832 -0.274213,-0.792636 0.06621,-0.01701 c 0.11868,0.184607 0.244108,0.31438 0.376285,0.389319 0.190505,0.108346 0.405564,0.131741 0.645178,0.07019 0.326633,-0.08392 0.541867,-0.277009 0.645701,-0.579277 0.08646,-0.254789 0.09097,-0.532887 0.01353,-0.834295 -0.06285,-0.244661 -0.167493,-0.455731 -0.313917,-0.633212 -0.146423,-0.177482 -0.308317,-0.293517 -0.485682,-0.348106 -0.177364,-0.05459 -0.346758,-0.06115 -0.508184,-0.01968 -0.09458,0.0243 -0.182938,0.05977 -0.265063,0.106411 -0.08212,0.04664 -0.158175,0.103821 -0.228163,0.171543 l 0.190507,0.741545 c 0.03305,0.128633 0.06445,0.210303 0.0942,0.245008 0.02976,0.0347 0.0678,0.05719 0.114129,0.06747 0.04633,0.01028 0.121206,0.0021 0.224618,-0.02443 l 0.01847,0.07188 -0.99314,0.255144 -0.01847,-0.07188 0.04729,-0.01215 c 0.09837,-0.02527 0.157417,-0.0754 0.17714,-0.150369 0.01324,-0.05314 0.0022,-0.148446 -0.03312,-0.285908 l -0.201686,-0.785053 c 0.124945,-0.11545 0.253342,-0.209605 0.38519,-0.282464 0.131853,-0.07286 0.284166,-0.131484 0.456939,-0.17587 0.495625,-0.127329 0.912895,-0.06514 1.251811,0.186572 0.254188,0.188782 0.421295,0.438923 0.501321,0.750423 0.05799,0.225741 0.05933,0.455957 0.004,0.690647 -0.06546,0.278965 -0.193417,0.513494 -0.383879,0.703585 -0.15972,0.157991 -0.367585,0.269872 -0.623596,0.335646 -0.09332,0.02397 -0.180077,0.03819 -0.260264,0.04266 -0.08019,0.0045 -0.196913,-0.0012 -0.350184,-0.01691 -0.07742,-0.0083 -0.12812,-0.0094 -0.152083,-0.0033 -0.02396,0.0062 -0.04162,0.02245 -0.05297,0.0489 -0.01135,0.02644 -0.01066,0.07231 0.0021,0.1376 l -0.06999,0.01798 z m -3.994264,-1.6531 1.023332,0.06494 0.205797,-0.40575 c 0.0507,-0.09986 0.07765,-0.175122 0.08087,-0.225801 0.0026,-0.04028 -0.01436,-0.07691 -0.05076,-0.10988 -0.0364,-0.03297 -0.117979,-0.05804 -0.244751,-0.07522 l 0.0046,-0.07212 0.83231,0.05282 -0.0046,0.07212 c -0.111691,0.01248 -0.18477,0.03329 -0.219236,0.06241 -0.07023,0.05817 -0.151691,0.180208 -0.244381,0.366117 l -1.067812,2.11631 -0.06822,-0.0043 -0.780498,-2.257086 c -0.06285,-0.181428 -0.122823,-0.300374 -0.179911,-0.356836 -0.05708,-0.05646 -0.139347,-0.09137 -0.246794,-0.104708 l 0.0046,-0.07212 1.042824,0.06618 -0.0046,0.07212 c -0.105585,-0.0015 -0.177844,0.01155 -0.216777,0.03909 -0.03893,0.02754 -0.05976,0.06275 -0.06248,0.10563 -0.0036,0.05718 0.01663,0.149138 0.06077,0.275887 l 0.135715,0.390238 z m 0.04542,0.147704 0.380533,1.096613 0.527797,-1.038972 -0.90833,-0.05764 z m -4.437919,-1.472322 -0.05543,-0.03562 0.466513,-0.591859 1.917758,0.726573 -0.0256,0.06758 -0.09315,-0.03529 c -0.104716,-0.03967 -0.192516,-0.03395 -0.263402,0.01717 -0.04033,0.02928 -0.08725,0.114536 -0.140768,0.255781 l -0.605477,1.598132 c -0.05859,0.154636 -0.07821,0.257895 -0.05888,0.309778 0.02719,0.07157 0.08766,0.125109 0.18142,0.160632 l 0.09315,0.03529 -0.0256,0.06758 -1.121432,-0.424872 0.0256,-0.06758 c 0.131044,0.05104 0.227892,0.07381 0.290545,0.06831 0.06266,-0.0055 0.111105,-0.02405 0.145347,-0.05563 0.03425,-0.03159 0.07928,-0.121043 0.135095,-0.268374 l 0.589563,-1.556123 c 0.03829,-0.101063 0.05484,-0.174158 0.04966,-0.219285 -0.0049,-0.03111 -0.0203,-0.05851 -0.04613,-0.08222 -0.02583,-0.02371 -0.118495,-0.06578 -0.278005,-0.126212 l -0.180817,-0.06851 c -0.189948,-0.07197 -0.328582,-0.108476 -0.415905,-0.109534 -0.08732,-0.0011 -0.17613,0.02203 -0.266436,0.06928 -0.0903,0.04724 -0.196174,0.135581 -0.317618,0.265013 l 0,0 z m -3.044543,-2.015367 -0.0434,-0.04957 0.612118,-0.439594 1.641693,1.229044 -0.04331,0.05785 -0.07974,-0.0597 c -0.08964,-0.06711 -0.175596,-0.08591 -0.257862,-0.05642 -0.04686,0.01697 -0.11555,0.08591 -0.20607,0.20682 l -1.024204,1.368077 c -0.0991,0.132376 -0.146546,0.226167 -0.142334,0.281374 0.0063,0.07629 0.04961,0.144486 0.129866,0.204574 l 0.07974,0.0597 -0.04331,0.05785 -0.96,-0.718698 0.04331,-0.05785 c 0.111795,0.08532 0.198556,0.134006 0.260283,0.146063 0.06173,0.01205 0.11342,0.0076 0.155066,-0.01322 0.04165,-0.02087 0.109686,-0.09437 0.204106,-0.220489 l 0.997281,-1.332117 c 0.06477,-0.08651 0.100911,-0.15217 0.108423,-0.196969 0.0039,-0.03125 -0.0033,-0.06185 -0.02156,-0.09178 -0.01825,-0.02993 -0.09566,-0.09601 -0.232203,-0.198236 L 44.858305,62.367013 C 44.695701,62.24528 44.57259,62.171819 44.488973,62.14663 c -0.08361,-0.02519 -0.175347,-0.02758 -0.275201,-0.0072 -0.09985,0.0204 -0.226039,0.07598 -0.378567,0.166735 l 0,0 z m -2.217037,-2.330262 0.605416,0.827585 0.443432,-0.101755 c 0.10916,-0.025 0.184233,-0.0525 0.225217,-0.08248 0.03258,-0.02383 0.04988,-0.06028 0.05189,-0.10935 0.002,-0.04907 -0.03097,-0.127787 -0.09895,-0.236157 l 0.05833,-0.04267 0.492405,0.673102 -0.05832,0.04267 c -0.08111,-0.07779 -0.143885,-0.120603 -0.188327,-0.128425 -0.08965,-0.01669 -0.235549,-0.0011 -0.437697,0.04674 l -2.309273,0.535023 -0.04036,-0.05517 1.233826,-2.044819 c 0.0991,-0.164455 0.152061,-0.286684 0.158873,-0.366688 0.0068,-0.08 -0.01906,-0.165536 -0.07761,-0.256607 l 0.05833,-0.04267 0.616948,0.843348 -0.05833,0.04267 c -0.06647,-0.08205 -0.122752,-0.129205 -0.168834,-0.141475 -0.04608,-0.01227 -0.08646,-0.0057 -0.121141,0.01965 -0.04624,0.03383 -0.1039,0.108276 -0.172986,0.223345 l -0.212828,0.35413 z m -0.08436,0.129473 -0.598611,0.994501 1.13599,-0.259921 -0.537379,-0.73458 z m -2.79431,-1.546624 -0.222399,-0.683476 1.387843,-2.1543 -1.452387,0.472599 c -0.15477,0.05036 -0.245708,0.09912 -0.272813,0.146282 -0.03709,0.06273 -0.03953,0.14363 -0.0073,0.242683 l 0.0284,0.08729 -0.06872,0.02236 -0.285251,-0.876633 0.06872,-0.02236 0.02901,0.08915 c 0.03465,0.106486 0.09142,0.171539 0.170309,0.195162 0.04849,0.01435 0.143307,-0.0014 0.284457,-0.04738 l 2.122863,-0.690768 0.02176,0.06686 -1.487857,2.320348 1.550823,-0.504629 c 0.154773,-0.05036 0.245912,-0.0985 0.273417,-0.144425 0.03669,-0.06397 0.03913,-0.144866 0.0073,-0.242683 l -0.02901,-0.08915 0.06872,-0.02236 0.285251,0.876633 -0.06872,0.02236 -0.0284,-0.08729 c -0.03505,-0.107722 -0.09202,-0.173395 -0.170913,-0.197019 -0.04848,-0.01435 -0.143304,0.0014 -0.284457,0.04737 l -1.751409,0.569899 c -0.06166,0.100852 -0.09997,0.174592 -0.114922,0.221221 -0.01495,0.04663 -0.0223,0.110296 -0.02206,0.191004 5.43e-4,0.03953 0.0127,0.09583 0.03647,0.168879 l -0.06872,0.02236 z m -1.211414,-6.895974 0.620515,-0.03972 0.0012,0.07421 c -0.109117,0.01616 -0.186903,0.037 -0.233358,0.06252 -0.07483,0.04163 -0.129584,0.09627 -0.164263,0.163914 -0.03467,0.06765 -0.05109,0.156156 -0.04926,0.265513 l 0.0063,0.372995 2.023152,-0.03398 c 0.162738,-0.0027 0.263991,-0.02201 0.303759,-0.05784 0.05385,-0.05039 0.07991,-0.127009 0.07818,-0.229861 l -0.0015,-0.09178 0.07225,-0.0012 0.01886,1.122888 -0.07226,0.0012 -0.0016,-0.09374 c -0.0019,-0.111962 -0.03706,-0.19081 -0.10555,-0.236542 -0.04214,-0.02794 -0.13742,-0.04067 -0.285837,-0.03817 l -2.023152,0.03398 0.0053,0.318314 c 0.0021,0.123681 0.01267,0.211406 0.03177,0.263176 0.02587,0.06728 0.07437,0.12442 0.145477,0.171409 0.07111,0.04699 0.166633,0.07404 0.286559,0.08114 l 0.0012,0.07421 -0.621531,-0.02082 -0.03631,-2.161804 z m 3.480104,-3.788338 -0.189496,0.681165 -1.43325,0.531807 c -0.01529,0.06468 -0.02852,0.117084 -0.03968,0.157225 -0.0045,0.01631 -0.0097,0.03378 -0.0156,0.05242 -0.0059,0.01864 -0.01221,0.03783 -0.01905,0.05755 l 0.741377,0.206246 c 0.160569,0.04467 0.265183,0.05485 0.313843,0.03054 0.06846,-0.03231 0.115946,-0.09614 0.142469,-0.191478 l 0.02774,-0.09973 0.06962,0.01937 -0.304135,1.09325 -0.06962,-0.01937 0.0267,-0.09597 c 0.03001,-0.107882 0.01635,-0.194801 -0.04099,-0.260759 -0.03156,-0.03716 -0.120096,-0.07598 -0.265612,-0.116465 l -1.648342,-0.458558 c -0.160567,-0.04467 -0.265181,-0.05485 -0.313843,-0.03055 -0.0688,0.03357 -0.116642,0.09865 -0.143516,0.195241 l -0.0267,0.09596 -0.06962,-0.01937 0.258593,-0.929545 c 0.07538,-0.270958 0.150714,-0.465232 0.225997,-0.582822 0.07529,-0.117585 0.178407,-0.206481 0.309357,-0.266688 0.130955,-0.0602 0.269816,-0.06989 0.416585,-0.02906 0.156807,0.04362 0.278693,0.132607 0.365659,0.266948 0.08697,0.134346 0.124449,0.315403 0.112441,0.543172 l 0.878541,-0.323238 c 0.201597,-0.07366 0.342034,-0.146094 0.421309,-0.217298 0.07927,-0.0712 0.145807,-0.174328 0.199598,-0.309386 l 0.06962,0.01937 z m -1.815624,1.44719 c 0.0066,-0.02383 0.0127,-0.04444 0.01822,-0.06183 0.0055,-0.01739 0.0098,-0.03173 0.01298,-0.04302 0.0677,-0.243361 0.06605,-0.44148 -0.0049,-0.594359 -0.071,-0.152875 -0.188037,-0.251997 -0.351116,-0.297367 -0.159313,-0.04432 -0.302706,-0.03049 -0.43018,0.0415 -0.127471,0.07199 -0.214065,0.190145 -0.259783,0.354475 -0.02024,0.07276 -0.03572,0.174549 -0.04643,0.305368 l 1.061261,0.295236 z m 1.042167,-5.396568 0.506167,-0.772822 0.06045,0.03959 -0.02782,0.04248 c -0.01855,0.02832 -0.03313,0.07792 -0.04375,0.148788 -0.01062,0.07087 -0.0071,0.143977 0.01046,0.21931 0.01759,0.07534 0.05781,0.180285 0.12066,0.314838 l 0.491516,1.085388 0.555517,0.36384 c 0.136155,0.08918 0.231104,0.129575 0.284847,0.12119 0.07286,-0.01143 0.138537,-0.0618 0.197037,-0.15112 l 0.04709,-0.07189 0.06045,0.03959 -0.616389,0.941112 -0.06045,-0.03959 0.05137,-0.07843 c 0.06135,-0.09367 0.07655,-0.178667 0.04559,-0.254979 -0.01916,-0.04679 -0.09083,-0.110852 -0.215003,-0.192182 l -0.524473,-0.343508 -1.326125,-2.7e-5 c -0.156008,5.51e-4 -0.256011,0.0047 -0.30001,0.01247 -0.04399,0.0078 -0.11145,0.03946 -0.202369,0.0951 -0.02516,0.01465 -0.05129,0.04267 -0.07841,0.08406 l -0.06045,-0.0396 0.620669,-0.947646 0.06045,0.03959 -0.0321,0.04902 c -0.03353,0.0512 -0.0524,0.106155 -0.05662,0.164873 -0.0042,0.05872 0.01764,0.103778 0.06557,0.135166 0.03921,0.02569 0.131775,0.03883 0.277681,0.03945 l 1.016846,0.0053 -0.398307,-0.88192 c -0.05958,-0.132413 -0.114429,-0.215029 -0.164535,-0.247849 -0.0305,-0.01997 -0.0629,-0.02991 -0.09721,-0.02981 -0.03431,1.02e-4 -0.0679,0.0104 -0.100778,0.03089 -0.03288,0.0205 -0.06858,0.06015 -0.107103,0.118967 l -0.06045,-0.0396 z"
         transform="matrix(-0.97506,-0.221943,0.221943,-0.97506,91.71835,115.4418)"
         style="font-size:4px;font-family:Times New Roman"
         id="text1930"
         inkscape:connector-curvature="0" />
    </g>
    <g
       id="g3115"
       transform="matrix(0.01584642,0.99987444,-0.99987444,0.01584642,889.14815,-11.039995)">
      <path
         inkscape:connector-curvature="0"
         id="path3117"
         style="fill:#ffffff;fill-opacity:1;fill-rule:evenodd;stroke:#000000;stroke-opacity:1"
         d="m 398.83035,364.1019 c 6.4702,6.47037 4.72179,18.70935 -3.90517,27.33652 -8.62697,8.62718 -20.86565,10.37563 -27.33585,3.90523 -6.47021,-6.47038 -4.7218,-18.70938 3.90516,-27.33655 8.62697,-8.62715 20.86565,-10.3756 27.33586,-3.9052 z" />
      <path
         inkscape:connector-curvature="0"
         id="path3119"
         style="fill:#000000;fill-opacity:1;fill-rule:evenodd;stroke:none"
         d="m 366.28711,383.62665 2.60309,-2.60318 10.4141,5.20698 -5.20739,-10.4138 2.60363,-2.6038 10.41369,20.82777 -20.82712,-10.41397 z" />
      <rect
         id="rect3121"
         style="font-size:12px;fill:#000000;fill-opacity:1;fill-rule:evenodd;stroke:none"
         transform="matrix(0.70709678,-0.70711678,0.70709678,0.70711678,0,0)"
         y="530.26886"
         x="9.837534"
         height="22.090914"
         width="3.6818185" />
    </g>
    <g
       transform="matrix(-0.99999103,0.00423624,-0.00423624,-0.99999103,901.62584,889.94659)"
       id="g3123">
      <path
         d="m 398.16301,363.36322 c 6.4702,6.47037 4.72179,18.70935 -3.90517,27.33652 -8.62697,8.62718 -20.86565,10.37563 -27.33585,3.90523 -6.47021,-6.47038 -4.7218,-18.70938 3.90516,-27.33655 8.62697,-8.62715 20.86565,-10.3756 27.33586,-3.9052 z"
         style="fill:#ffffff;fill-opacity:1;fill-rule:evenodd;stroke:#000000;stroke-opacity:1"
         id="path3125"
         inkscape:connector-curvature="0" />
      <path
         d="m 366.28711,383.62665 2.60309,-2.60318 10.4141,5.20698 -5.20739,-10.4138 2.60363,-2.6038 10.41369,20.82777 -20.82712,-10.41397 z"
         style="fill:#000000;fill-opacity:1;fill-rule:evenodd;stroke:none"
         id="path3127"
         inkscape:connector-curvature="0" />
      <rect
         width="3.6818185"
         height="22.090914"
         x="9.837534"
         y="530.26886"
         transform="matrix(0.70709678,-0.70711678,0.70709678,0.70711678,0,0)"
         style="font-size:12px;fill:#000000;fill-opacity:1;fill-rule:evenodd;stroke:none"
         id="rect3129" />
    </g>
    <g
       id="g3133"
       transform="matrix(-7.537656e-4,-0.99999972,0.99999972,-7.537656e-4,3.0721102,896.08239)">
      <path
         inkscape:connector-curvature="0"
         id="path3135"
         style="fill:#ffffff;fill-opacity:1;fill-rule:evenodd;stroke:#000000;stroke-opacity:1"
         d="m 398.83035,364.1019 c 6.4702,6.47037 4.72179,18.70935 -3.90517,27.33652 -8.62697,8.62718 -20.86565,10.37563 -27.33585,3.90523 -6.47021,-6.47038 -4.7218,-18.70938 3.90516,-27.33655 8.62697,-8.62715 20.86565,-10.3756 27.33586,-3.9052 z" />
      <path
         inkscape:connector-curvature="0"
         id="path3137"
         style="fill:#000000;fill-opacity:1;fill-rule:evenodd;stroke:none"
         d="m 366.28711,383.62665 2.60309,-2.60318 10.4141,5.20698 -5.20739,-10.4138 2.60363,-2.6038 10.41369,20.82777 -20.82712,-10.41397 z" />
      <rect
         id="rect3139"
         style="font-size:12px;fill:#000000;fill-opacity:1;fill-rule:evenodd;stroke:none"
         transform="matrix(0.70709678,-0.70711678,0.70709678,0.70711678,0,0)"
         y="530.26886"
         x="9.837534"
         height="22.090914"
         width="3.6818185" />
    </g>
  </g>
</svg>
