<?xml version="1.0" encoding="UTF-8" standalone="no"?>
<!-- Created with Inkscape (http://www.inkscape.org/) -->
<svg
   xmlns:dc="http://purl.org/dc/elements/1.1/"
   xmlns:cc="http://creativecommons.org/ns#"
   xmlns:rdf="http://www.w3.org/1999/02/22-rdf-syntax-ns#"
   xmlns:svg="http://www.w3.org/2000/svg"
   xmlns="http://www.w3.org/2000/svg"
   xmlns:sodipodi="http://sodipodi.sourceforge.net/DTD/sodipodi-0.dtd"
   xmlns:inkscape="http://www.inkscape.org/namespaces/inkscape"
   id="svg2"
   sodipodi:version="0.32"
   inkscape:version="0.46"
   width="600"
   height="600"
   version="1.0"
   sodipodi:docname="Roundel_of_the_Slovenian_Air_Force.svg"
   inkscape:output_extension="org.inkscape.output.svg.inkscape">
  <metadata
     id="metadata7">
    <rdf:RDF>
      <cc:Work
         rdf:about="">
        <dc:format>image/svg+xml</dc:format>
        <dc:type
           rdf:resource="http://purl.org/dc/dcmitype/StillImage" />
      </cc:Work>
    </rdf:RDF>
  </metadata>
  <defs
     id="defs5">
    <inkscape:perspective
       sodipodi:type="inkscape:persp3d"
       inkscape:vp_x="0 : 526.18109 : 1"
       inkscape:vp_y="0 : 1000 : 0"
       inkscape:vp_z="744.09448 : 526.18109 : 1"
       inkscape:persp3d-origin="372.04724 : 350.78739 : 1"
       id="perspective9" />
    <inkscape:perspective
       id="perspective2455"
       inkscape:persp3d-origin="600 : 200 : 1"
       inkscape:vp_z="1200 : 300 : 1"
       inkscape:vp_y="0 : 1000 : 0"
       inkscape:vp_x="0 : 300 : 1"
       sodipodi:type="inkscape:persp3d" />
  </defs>
  <sodipodi:namedview
     inkscape:window-height="712"
     inkscape:window-width="1024"
     inkscape:pageshadow="2"
     inkscape:pageopacity="0.0"
     guidetolerance="10.0"
     gridtolerance="10.0"
     objecttolerance="10.0"
     borderopacity="1.0"
     bordercolor="#666666"
     pagecolor="#ffffff"
     id="base"
     showgrid="false"
     inkscape:showpageshadow="false"
     inkscape:zoom="1.125"
     inkscape:cx="237.23958"
     inkscape:cy="272.14365"
     inkscape:window-x="-4"
     inkscape:window-y="-4"
     inkscape:current-layer="svg2" />
  <path
     sodipodi:type="arc"
     style="opacity:1;fill:#ffffff;fill-opacity:1;stroke:#000000;stroke-width:0.32521734;stroke-linecap:round;stroke-linejoin:round;stroke-miterlimit:4;stroke-dasharray:none;stroke-dashoffset:0;stroke-opacity:1"
     id="path2384"
     sodipodi:cx="-224.67532"
     sodipodi:cy="123.37663"
     sodipodi:rx="97.402596"
     sodipodi:ry="97.402596"
     d="M -127.27273,123.37663 A 97.402596,97.402596 0 1 1 -322.07792,123.37663 A 97.402596,97.402596 0 1 1 -127.27273,123.37663 z"
     transform="matrix(3.0748667,0,0,3.0748667,990.84667,-79.366702)" />
  <path
     sodipodi:type="arc"
     style="opacity:1;fill:#005ce6;fill-opacity:1;stroke:none;stroke-width:0.94230771000000002;stroke-linecap:round;stroke-linejoin:round;stroke-miterlimit:4;stroke-dasharray:none;stroke-dashoffset:0;stroke-opacity:1"
     id="path3156"
     sodipodi:cx="292.20779"
     sodipodi:cy="311.68832"
     sodipodi:rx="190.90909"
     sodipodi:ry="190.90909"
     d="M 483.11688,311.68832 A 190.90909,190.90909 0 1 1 101.29871,311.68832 A 190.90909,190.90909 0 1 1 483.11688,311.68832 z"
     transform="matrix(1.0476191,0,0,1.0476191,-6.1224669,-26.530644)" />
  <path
     transform="matrix(0.5238095,0,0,0.5238095,146.93878,136.73469)"
     d="M 483.11688,311.68832 A 190.90909,190.90909 0 1 1 101.29871,311.68832 A 190.90909,190.90909 0 1 1 483.11688,311.68832 z"
     sodipodi:ry="190.90909"
     sodipodi:rx="190.90909"
     sodipodi:cy="311.68832"
     sodipodi:cx="292.20779"
     id="path3158"
     style="opacity:1;fill:#ff0000;fill-opacity:1;stroke:none;stroke-width:0.94230771000000002;stroke-linecap:round;stroke-linejoin:round;stroke-miterlimit:4;stroke-dasharray:none;stroke-dashoffset:0;stroke-opacity:1"
     sodipodi:type="arc" />
  <path
     d="M 4.27705,897.75438 L -25.08768,858.60188 L -36.83329,874.26315 L -54.45171,839.02632 L -72.07013,874.26315 L -83.81574,858.60188 L -113.17977,897.75438 C -113.17977,902.94626 -111.11697,907.92475 -107.44577,911.59594 C -103.77458,915.26575 -98.79609,917.32995 -93.60352,917.32995 C -90.13674,917.32995 -86.76457,916.41008 -83.81436,914.70637 C -83.79502,914.69394 -83.83784,914.72019 -83.81919,914.70915 C -82.34892,913.85972 -80.76262,913.19811 -79.09484,912.752 C -74.07975,911.4088 -68.73663,912.11113 -64.24018,914.70637 C -61.23817,916.43977 -57.85771,917.32995 -54.45033,917.32995 C -54.43582,917.32995 -54.46828,917.32995 -54.45378,917.32995 C -51.0457,917.32995 -47.66594,916.43977 -44.66324,914.70637 C -40.16747,912.11113 -34.82366,911.40741 -29.80857,912.752 C -28.14148,913.19811 -26.55519,913.85972 -25.08491,914.70915 C -25.06489,914.72019 -25.1077,914.69464 -25.08906,914.70637 C -22.13815,916.41008 -18.76737,917.32995 -15.30059,917.32995 C -10.10732,917.32995 -5.12884,915.26645 -1.45764,911.59594 C 2.21355,907.92475 4.27636,902.94626 4.27636,897.75438"
     id="path23"
     style="fill:#ffffff" />
  <path
     d="M -106.22342,919.01153 C -104.87607,921.68897 -103.39475,924.30149 -101.78498,926.83872 C -101.78498,926.83872 -101.78567,926.8401 -101.78498,926.84149 C -97.65247,928.742 -92.96679,929.15221 -88.53663,927.96508 C -86.86816,927.51896 -85.28256,926.85668 -83.81229,926.00793 C -83.79295,925.99689 -83.83576,926.02175 -83.81643,926.01071 C -80.86621,924.30563 -77.49405,923.38713 -74.02727,923.38713 C -74.02036,923.38713 -74.03625,923.38713 -74.02934,923.38713 C -70.62195,923.38576 -67.2415,924.27592 -64.23949,926.01071 C -59.74303,928.60594 -54.39991,929.30828 -49.38413,927.96508 C -47.71704,927.51896 -46.13075,926.85668 -44.66047,926.00793 C -44.64045,925.99689 -44.68326,926.02175 -44.66462,926.01071 C -41.71509,924.30563 -38.34292,923.38713 -34.87476,923.38713 C -34.86786,923.38713 -34.88443,923.38713 -34.87753,923.38713 C -31.47014,923.38576 -28.08899,924.27592 -25.08768,926.01071 C -20.59053,928.60594 -15.2481,929.30828 -10.23301,927.96508 C -9.15638,927.67779 -8.11565,927.29865 -7.11705,926.8401 L -7.11705,926.8401 C -5.50659,924.30149 -4.02527,921.68897 -2.67792,919.01292 C -2.67792,919.01153 -2.67792,919.01292 -2.67792,919.01292 C -3.6558,919.38515 -4.60399,919.83541 -5.51281,920.36026 C -5.53145,920.37132 -5.48864,920.34646 -5.50728,920.3575 C -6.97755,921.20625 -8.56385,921.86715 -10.23232,922.31465 C -15.24741,923.65785 -20.58984,922.95552 -25.08699,920.35889 C -28.0883,918.62549 -31.46945,917.7367 -34.87684,917.7367 C -34.88374,917.7367 -34.86717,917.7367 -34.87407,917.7367 C -38.34155,917.7367 -41.71371,918.65657 -44.66393,920.36026 C -44.68257,920.37132 -44.63976,920.34646 -44.65978,920.3575 C -46.13006,921.20693 -47.71635,921.86851 -49.38344,922.31465 C -54.39922,923.65924 -59.74234,922.9569 -64.2388,920.36026 C -67.24081,918.62688 -70.62126,917.7367 -74.02865,917.7367 C -74.03625,917.7367 -74.01967,917.7367 -74.02658,917.7367 C -77.49336,917.7367 -80.86552,918.65657 -83.81574,920.36165 C -83.83507,920.37269 -83.79226,920.34783 -83.8116,920.35889 C -85.28187,921.20762 -86.86747,921.86851 -88.53594,922.31602 C -93.55103,923.65924 -98.89415,922.9569 -103.39061,920.36026 C -104.30288,919.83403 -105.25038,919.38515 -106.22273,919.01567 C -106.22342,919.01567 -106.22273,919.01431 -106.22273,919.01567"
     id="path25"
     style="fill:#ffffff" />
  <path
     d="M -12.18808,934.03471 C -14.46911,936.95729 -16.93867,939.75488 -19.58917,942.404 C -29.49228,952.30711 -41.44507,959.68748 -54.45171,964.13352 L -54.4524,964.13352 C -67.45903,959.68748 -79.41252,952.3085 -89.31562,942.404 C -91.96543,939.75488 -94.43499,936.95729 -96.71602,934.03471 C -96.71602,934.03471 -96.71671,934.03471 -96.71602,934.03471 C -94.01649,934.46908 -91.22926,934.33719 -88.53732,933.6169 C -86.86885,933.16939 -85.28325,932.50849 -83.81298,931.65975 C -83.79364,931.64871 -83.83646,931.67357 -83.81712,931.66252 C -80.86691,929.95745 -77.49474,929.03895 -74.02796,929.03895 C -74.02105,929.03895 -74.03694,929.03895 -74.03003,929.03895 C -70.62264,929.03758 -67.24219,929.92774 -64.24018,931.66114 C -59.74372,934.25776 -54.4006,934.96009 -49.38551,933.6169 C -47.71704,933.16939 -46.13075,932.50849 -44.66047,931.65975 C -44.64183,931.64871 -44.68464,931.67357 -44.66462,931.66252 C -41.71509,929.95745 -38.34292,929.03895 -34.87615,929.03895 C -34.86924,929.03895 -34.88443,929.03895 -34.87753,929.03895 C -31.47014,929.03758 -28.09038,929.92774 -25.08768,931.66114 C -21.17201,933.92284 -16.61202,934.74741 -12.18739,934.03401 C -12.18601,934.03401 -12.18739,934.03401 -12.18877,934.0354"
     id="path27"
     style="fill:#ffffff" />
</svg>
