<?xml version="1.0" encoding="UTF-8" standalone="no"?>
<!-- Created with Inkscape (http://www.inkscape.org/) -->

<svg
   xmlns:dc="http://purl.org/dc/elements/1.1/"
   xmlns:cc="http://creativecommons.org/ns#"
   xmlns:rdf="http://www.w3.org/1999/02/22-rdf-syntax-ns#"
   xmlns:svg="http://www.w3.org/2000/svg"
   xmlns="http://www.w3.org/2000/svg"
   xmlns:sodipodi="http://sodipodi.sourceforge.net/DTD/sodipodi-0.dtd"
   xmlns:inkscape="http://www.inkscape.org/namespaces/inkscape"
   version="1.0"
   width="392.16293"
   height="392.16293"
   id="svg2"
   inkscape:version="0.48.4 r9939"
   sodipodi:docname="Roundel_of_the_Serbian_Air_Force_2006.svg">
  <metadata
     id="metadata27">
    <rdf:RDF>
      <cc:Work
         rdf:about="">
        <dc:format>image/svg+xml</dc:format>
        <dc:type
           rdf:resource="http://purl.org/dc/dcmitype/StillImage" />
      </cc:Work>
    </rdf:RDF>
  </metadata>
  <sodipodi:namedview
     pagecolor="#ffffff"
     bordercolor="#666666"
     borderopacity="1"
     objecttolerance="10"
     gridtolerance="10"
     guidetolerance="10"
     inkscape:pageopacity="0"
     inkscape:pageshadow="2"
     inkscape:window-width="1366"
     inkscape:window-height="706"
     id="namedview25"
     showgrid="false"
     inkscape:zoom="0.85"
     inkscape:cx="196.08147"
     inkscape:cy="196.08147"
     inkscape:window-x="-8"
     inkscape:window-y="-8"
     inkscape:window-maximized="1"
     inkscape:current-layer="svg2" />
  <defs
     id="defs2238" />
  <circle
     cx="196.37"
     cy="196.67"
     r="172"
     id="circle4-1"
     sodipodi:cx="196.37"
     sodipodi:cy="196.67"
     sodipodi:rx="172"
     sodipodi:ry="172"
     transform="matrix(1.0008925,0,0,1.0008925,-0.54526954,-0.68258917)"
     style="fill:#c6363c;fill-opacity:1;stroke:#0c4076;stroke-width:8.48538208;stroke-miterlimit:4;stroke-opacity:1;stroke-dasharray:none" />
  <circle
     cx="196.37"
     cy="196.67"
     r="120"
     id="circle8-4"
     sodipodi:cx="196.37"
     sodipodi:cy="196.67"
     sodipodi:rx="120"
     sodipodi:ry="120"
     transform="matrix(0.89833333,0,0,0.89833328,20.247619,18.834406)"
     style="fill:#0c4076;fill-opacity:1" />
  <path
     d="M 221.11669,196.16294 251.17764,14.709694 a 150.30458,150.30458 0 0 0 -109.36641,0 l 30.65426,181.453246 m 23.53455,25.11667 181.45321,30.06092 a 150.30458,150.30458 0 0 0 0,-109.36636 l -181.45321,30.65425 m 25.11665,23.53452 30.06095,181.45324 a 150.30458,150.30458 0 0 1 -109.36641,0 l 30.65426,-181.45324 m 23.53455,25.11667 -181.453292,30.06092 a 150.30458,150.30458 0 0 1 0,-109.36636 l 181.453292,30.65425"
     id="path10"
     style="fill:#ffffff;stroke:#0c4076;stroke-width:8.49302673;stroke-miterlimit:4;stroke-opacity:1;stroke-dasharray:none"
     inkscape:connector-curvature="0" />
  <circle
     cx="196.39999"
     cy="196.75"
     r="53.400002"
     id="circle12"
     style="fill:#ffffff"
     sodipodi:cx="196.39999"
     sodipodi:cy="196.75"
     sodipodi:rx="53.400002"
     sodipodi:ry="53.400002"
     transform="matrix(0.97877649,0,0,0.97877644,3.7683005,3.5886717)" />
</svg>
